<svg xmlns="http://www.w3.org/2000/svg" xmlns:xlink="http://www.w3.org/1999/xlink" width="500" zoomAndPan="magnify" viewBox="0 0 375 374.999991" height="500" preserveAspectRatio="xMidYMid meet" version="1.0"><defs><g/><clipPath id="96ce1689fd"><path d="M 30.132812 37.5 L 328 37.5 L 328 335.042969 L 30.132812 335.042969 Z M 30.132812 37.5 " clip-rule="nonzero"/></clipPath><clipPath id="90a2730189"><path d="M 179.175781 37.5 C 96.859375 37.5 30.132812 104.105469 30.132812 186.273438 C 30.132812 268.4375 96.859375 335.042969 179.175781 335.042969 C 261.492188 335.042969 328.21875 268.4375 328.21875 186.273438 C 328.21875 104.105469 261.492188 37.5 179.175781 37.5 Z M 179.175781 37.5 " clip-rule="nonzero"/></clipPath><clipPath id="c15e8ec787"><path d="M 68.597656 126.269531 L 104.589844 126.269531 L 104.589844 168.871094 L 68.597656 168.871094 Z M 68.597656 126.269531 " clip-rule="nonzero"/></clipPath><clipPath id="d39ab2ffb0"><path d="M 212 107.367188 L 270 107.367188 L 270 165.867188 L 212 165.867188 Z M 212 107.367188 " clip-rule="nonzero"/></clipPath><clipPath id="034c20e2dc"><path d="M 211.84375 107.367188 L 270.34375 107.367188 L 270.34375 165.867188 L 211.84375 165.867188 Z M 211.84375 107.367188 " clip-rule="nonzero"/></clipPath><clipPath id="9d0185cf10"><path d="M 221.535156 117.058594 L 260.535156 117.058594 L 260.535156 156 L 221.535156 156 Z M 221.535156 117.058594 " clip-rule="nonzero"/></clipPath><clipPath id="6a2069fe95"><path d="M 230.296875 126 L 252 126 L 252 147 L 230.296875 147 Z M 230.296875 126 " clip-rule="nonzero"/></clipPath><clipPath id="85f8420e56"><path d="M 230.296875 125.820312 L 252 125.820312 L 252 147.570312 L 230.296875 147.570312 Z M 230.296875 125.820312 " clip-rule="nonzero"/></clipPath></defs><g clip-path="url(#96ce1689fd)"><g clip-path="url(#90a2730189)"><path fill="#00cc65" d="M 30.132812 37.5 L 327.675781 37.5 L 327.675781 335.042969 L 30.132812 335.042969 Z M 30.132812 37.5 " fill-opacity="1" fill-rule="nonzero"/></g></g><g fill="#ffffff" fill-opacity="1"><g transform="translate(61.718112, 281.58768)"><g><path d="M 138.546875 -79.40625 L 138.546875 -48.640625 C 134.878906 -31.796875 126.859375 -19.046875 114.484375 -10.390625 C 102.109375 -1.742188 88.296875 2.578125 73.046875 2.578125 C 53.910156 2.578125 37.609375 -4.582031 24.140625 -18.90625 C 10.679688 -33.226562 3.953125 -50.53125 3.953125 -70.8125 C 3.953125 -91.445312 10.539062 -108.867188 23.71875 -123.078125 C 36.894531 -137.285156 53.335938 -144.390625 73.046875 -144.390625 C 96.085938 -144.390625 114.3125 -136.3125 127.71875 -120.15625 L 106.578125 -96.953125 C 99.015625 -109.097656 88.46875 -115.171875 74.9375 -115.171875 C 64.96875 -115.171875 56.457031 -110.84375 49.40625 -102.1875 C 42.363281 -93.539062 38.84375 -83.082031 38.84375 -70.8125 C 38.84375 -58.78125 42.363281 -48.492188 49.40625 -39.953125 C 56.457031 -31.421875 64.96875 -27.15625 74.9375 -27.15625 C 83.195312 -27.15625 90.390625 -29.644531 96.515625 -34.625 C 102.648438 -39.613281 105.71875 -46.234375 105.71875 -54.484375 L 73.046875 -54.484375 L 73.046875 -79.40625 Z M 138.546875 -79.40625 "/></g></g></g><g clip-path="url(#c15e8ec787)"><path fill="#00cc65" d="M 68.597656 126.269531 L 104.589844 126.269531 L 104.589844 168.867188 L 68.597656 168.867188 Z M 68.597656 126.269531 " fill-opacity="1" fill-rule="nonzero"/></g><g clip-path="url(#d39ab2ffb0)"><path fill="#ffffff" d="M 269.425781 137.011719 C 269.117188 137.523438 268.585938 137.824219 268.066406 138.117188 C 268.285156 138.433594 268.277344 138.863281 268.179688 139.238281 C 268.082031 139.613281 267.902344 139.964844 267.804688 140.339844 C 267.703125 140.714844 267.730469 141.210938 267.945312 141.53125 C 267.648438 141.542969 267.394531 141.785156 267.273438 142.058594 C 267.152344 142.335938 267.132812 142.640625 267.105469 142.941406 C 267.082031 143.242188 267.042969 143.550781 266.886719 143.804688 L 266.890625 143.808594 C 267.320312 143.976562 267.769531 144.160156 268.074219 144.507812 C 268.164062 144.613281 268.238281 144.730469 268.285156 144.855469 C 268.390625 145.144531 268.347656 145.472656 268.230469 145.757812 C 268.109375 146.042969 267.921875 146.289062 267.734375 146.539062 C 267.976562 146.777344 268.375 147.046875 268.484375 147.371094 C 268.550781 147.578125 268.558594 147.800781 268.589844 148.015625 C 268.695312 148.78125 269.101562 149.496094 269.078125 150.269531 C 269.074219 150.351562 269.015625 150.414062 268.949219 150.457031 C 268.882812 150.496094 268.804688 150.519531 268.738281 150.554688 C 268.496094 150.675781 268.371094 150.949219 268.320312 151.214844 C 268.269531 151.480469 268.277344 151.753906 268.222656 152.019531 C 268.105469 152.554688 267.695312 152.992188 267.335938 153.414062 C 267.53125 153.65625 267.730469 153.90625 267.839844 154.195312 C 267.953125 154.488281 267.964844 154.835938 267.796875 155.097656 C 267.597656 155.421875 267.109375 155.578125 266.738281 155.675781 C 267.011719 155.9375 267.300781 156.230469 267.355469 156.605469 C 267.390625 156.867188 267.308594 157.132812 267.34375 157.394531 C 267.375 157.617188 267.488281 157.824219 267.632812 158 C 267.78125 158.171875 267.960938 158.316406 268.132812 158.460938 C 267.816406 158.9375 267.847656 159.621094 267.996094 160.179688 C 268.148438 160.734375 268.414062 161.253906 268.558594 161.808594 C 268.75 162.519531 268.734375 163.28125 268.527344 163.984375 C 267.570312 164.210938 266.464844 164.214844 265.535156 163.898438 C 265.109375 163.75 264.699219 163.550781 264.257812 163.453125 C 263.816406 163.359375 263.285156 163.375 262.925781 163.644531 C 262.761719 163.375 262.507812 163.160156 262.214844 163.042969 C 261.875 162.90625 261.5 162.898438 261.136719 162.84375 C 260.773438 162.785156 260.371094 162.628906 260.167969 162.324219 C 260.078125 162.707031 259.902344 163.066406 259.648438 163.367188 C 259.558594 163.472656 259.449219 163.578125 259.308594 163.597656 C 259.207031 163.613281 259.101562 163.578125 259.003906 163.539062 C 258.632812 163.394531 258.265625 163.171875 257.941406 162.941406 C 257.75 162.933594 257.574219 163.058594 257.441406 163.195312 C 257.308594 163.335938 257.191406 163.496094 257.027344 163.601562 C 256.613281 163.863281 256.042969 163.660156 255.585938 163.835938 C 255.207031 163.984375 254.890625 164.339844 254.683594 164.6875 C 254.550781 164.574219 254.375 164.535156 254.203125 164.523438 C 254.03125 164.507812 253.855469 164.515625 253.6875 164.476562 C 253.433594 164.417969 253.210938 164.269531 252.964844 164.191406 C 252.617188 164.078125 252.230469 164.113281 251.882812 163.996094 C 251.488281 163.867188 251.179688 163.5625 250.886719 163.265625 C 250.523438 163.542969 250.351562 163.601562 249.925781 163.769531 C 249.757812 163.839844 249.570312 163.898438 249.390625 163.855469 C 249.246094 163.820312 249.121094 163.714844 249.015625 163.609375 C 248.695312 163.292969 248.441406 162.886719 248.261719 162.472656 C 247.800781 162.710938 247.222656 162.535156 246.726562 162.691406 C 246.378906 162.804688 246.066406 163.097656 245.945312 163.445312 C 245.695312 163.203125 245.292969 163.203125 244.960938 163.308594 C 244.628906 163.410156 244.328125 163.597656 243.996094 163.703125 C 243.546875 163.839844 243.046875 163.8125 242.617188 163.621094 L 242.621094 163.527344 C 242.457031 164.144531 242.015625 164.683594 241.441406 164.964844 C 241.277344 165.042969 241.097656 165.101562 240.917969 165.074219 C 240.769531 165.050781 240.636719 164.96875 240.511719 164.878906 C 240.0625 164.558594 239.679688 164.144531 239.394531 163.671875 C 238.882812 163.757812 238.363281 163.84375 237.886719 163.640625 C 237.644531 163.535156 237.433594 163.359375 237.1875 163.265625 C 236.796875 163.125 236.328125 163.214844 236.023438 163.496094 C 235.960938 163.199219 235.703125 162.949219 235.429688 162.828125 C 235.148438 162.703125 234.839844 162.667969 234.539062 162.636719 C 234.234375 162.605469 233.929688 162.570312 233.652344 162.441406 C 233.601562 162.886719 233.425781 163.226562 233.125 163.554688 C 233.003906 163.6875 232.859375 163.8125 232.683594 163.839844 C 232.566406 163.855469 232.449219 163.832031 232.339844 163.800781 C 231.933594 163.691406 231.546875 163.507812 231.207031 163.261719 C 230.652344 163.453125 230.324219 164.03125 229.753906 164.160156 C 229.484375 164.21875 229.199219 164.164062 228.929688 164.226562 C 228.71875 164.273438 228.527344 164.382812 228.320312 164.445312 C 227.957031 164.550781 227.539062 164.503906 227.214844 164.699219 C 227.039062 164.304688 226.621094 163.988281 226.210938 163.871094 C 225.96875 163.800781 225.710938 163.796875 225.464844 163.742188 C 224.996094 163.640625 224.480469 163.28125 224.195312 162.894531 C 223.984375 163.089844 223.945312 163.125 223.695312 163.269531 C 223.445312 163.414062 223.152344 163.5 222.871094 163.460938 C 222.613281 163.421875 222.375 163.273438 222.207031 163.070312 C 222.042969 162.871094 221.90625 162.535156 221.871094 162.273438 C 221.65625 162.621094 221.253906 162.835938 220.847656 162.878906 C 220.570312 162.90625 220.285156 162.863281 220.011719 162.914062 C 219.625 162.988281 219.21875 163.316406 219.058594 163.671875 C 218.71875 163.417969 218.257812 163.386719 217.839844 163.445312 C 217.164062 163.539062 216.535156 163.832031 215.878906 164.007812 C 215.121094 164.210938 214.058594 164.21875 213.460938 163.988281 C 213.25 163.285156 213.238281 162.519531 213.425781 161.8125 C 213.574219 161.253906 213.839844 160.734375 213.988281 160.179688 C 214.140625 159.625 214.171875 158.9375 213.851562 158.460938 C 214.03125 158.316406 214.207031 158.171875 214.351562 158 C 214.5 157.824219 214.613281 157.621094 214.644531 157.394531 C 214.675781 157.132812 214.59375 156.867188 214.632812 156.605469 C 214.6875 156.230469 214.976562 155.9375 215.25 155.675781 C 214.878906 155.578125 214.390625 155.421875 214.1875 155.101562 C 214.023438 154.835938 214.035156 154.488281 214.148438 154.199219 C 214.257812 153.90625 214.457031 153.65625 214.652344 153.414062 C 214.292969 152.996094 213.878906 152.558594 213.765625 152.019531 C 213.710938 151.753906 213.71875 151.480469 213.667969 151.214844 C 213.617188 150.949219 213.492188 150.679688 213.25 150.554688 C 213.179688 150.519531 213.105469 150.496094 213.039062 150.457031 C 212.96875 150.417969 212.914062 150.351562 212.910156 150.273438 L 212.910156 150.269531 C 212.882812 149.5 213.289062 148.78125 213.398438 148.015625 C 213.429688 147.800781 213.433594 147.578125 213.503906 147.371094 C 213.613281 147.050781 214.007812 146.78125 214.25 146.539062 C 214.0625 146.292969 213.878906 146.042969 213.757812 145.757812 C 213.640625 145.472656 213.59375 145.144531 213.703125 144.855469 C 213.75 144.726562 213.824219 144.613281 213.914062 144.511719 C 214.214844 144.160156 214.664062 143.976562 215.09375 143.808594 L 215.101562 143.808594 C 214.945312 143.550781 214.90625 143.242188 214.878906 142.941406 C 214.855469 142.640625 214.835938 142.335938 214.714844 142.0625 C 214.59375 141.789062 214.339844 141.546875 214.039062 141.53125 C 214.257812 141.210938 214.285156 140.714844 214.183594 140.339844 C 214.085938 139.964844 213.90625 139.613281 213.808594 139.238281 C 213.707031 138.863281 213.699219 138.433594 213.921875 138.117188 C 213.398438 137.824219 212.871094 137.523438 212.558594 137.011719 C 212.441406 136.820312 212.363281 136.59375 212.402344 136.371094 C 212.433594 136.203125 212.527344 136.054688 212.632812 135.921875 C 212.804688 135.699219 213 135.5 213.21875 135.328125 C 213.367188 135.210938 213.523438 135.101562 213.640625 134.957031 C 213.757812 134.808594 213.828125 134.609375 213.761719 134.433594 C 213.730469 134.136719 213.738281 133.785156 213.832031 133.5 C 213.9375 133.183594 214.171875 132.917969 214.265625 132.597656 C 214.375 132.230469 214.292969 131.800781 214.039062 131.515625 C 214.214844 131.441406 214.398438 131.359375 214.523438 131.21875 C 214.636719 131.089844 214.691406 130.921875 214.738281 130.753906 C 214.859375 130.289062 214.902344 129.808594 214.941406 129.332031 C 214.949219 129.285156 214.949219 129.234375 214.925781 129.195312 C 214.902344 129.152344 214.746094 129.113281 214.71875 129.152344 C 214.1875 129.023438 213.753906 128.5625 213.660156 128.027344 C 213.5625 127.492188 213.808594 126.910156 214.261719 126.609375 C 213.867188 126.359375 213.589844 125.925781 213.449219 125.480469 C 213.308594 125.035156 213.261719 124.566406 213.191406 124.105469 C 213.121094 123.644531 213.019531 123.179688 212.777344 122.78125 C 213.152344 122.5 213.558594 122.226562 213.679688 121.792969 C 213.773438 121.476562 213.753906 121.136719 213.828125 120.816406 C 213.929688 120.375 214.222656 119.980469 214.613281 119.75 C 214.421875 119.503906 214.230469 119.1875 214.132812 118.890625 C 214.039062 118.59375 214.035156 118.253906 214.195312 117.988281 C 214.398438 117.648438 214.851562 117.472656 215.238281 117.382812 L 215.253906 117.382812 C 215.0625 117.242188 215.070312 117.253906 214.933594 117.058594 C 214.765625 116.824219 214.691406 116.53125 214.648438 116.246094 C 214.605469 115.957031 214.585938 115.667969 214.507812 115.390625 C 214.511719 115.191406 214.40625 114.957031 214.242188 114.847656 C 214.128906 114.777344 213.988281 114.730469 213.933594 114.613281 C 213.898438 114.535156 213.917969 114.441406 213.960938 114.371094 C 214.003906 114.300781 214.082031 114.234375 214.15625 114.195312 C 214.132812 113.402344 213.808594 112.648438 213.605469 111.882812 C 213.351562 110.941406 213.273438 109.953125 213.375 108.984375 C 213.976562 108.753906 215.125 108.808594 215.882812 109.011719 C 216.539062 109.1875 217.167969 109.480469 217.84375 109.574219 C 218.261719 109.632812 218.71875 109.601562 219.0625 109.351562 C 219.222656 109.707031 219.628906 110.035156 220.015625 110.105469 C 220.289062 110.160156 220.574219 110.113281 220.851562 110.144531 C 221.261719 110.183594 221.660156 110.398438 221.875 110.746094 C 221.914062 110.488281 222.046875 110.152344 222.214844 109.949219 C 222.382812 109.75 222.617188 109.601562 222.875 109.5625 C 223.160156 109.519531 223.453125 109.605469 223.703125 109.75 C 223.953125 109.894531 223.988281 109.929688 224.199219 110.128906 C 224.488281 109.742188 225 109.378906 225.46875 109.277344 C 225.714844 109.226562 225.972656 109.222656 226.214844 109.152344 C 226.625 109.035156 227.046875 108.71875 227.21875 108.324219 C 227.546875 108.519531 227.960938 108.46875 228.324219 108.578125 C 228.53125 108.636719 228.722656 108.75 228.933594 108.796875 C 229.203125 108.855469 229.488281 108.800781 229.757812 108.863281 C 230.328125 108.988281 230.660156 109.570312 231.210938 109.757812 C 231.550781 109.511719 231.9375 109.328125 232.34375 109.21875 C 232.457031 109.1875 232.570312 109.164062 232.6875 109.183594 C 232.863281 109.210938 233.011719 109.332031 233.132812 109.464844 C 233.429688 109.796875 233.609375 110.136719 233.65625 110.578125 C 233.933594 110.453125 234.242188 110.417969 234.542969 110.382812 C 234.847656 110.351562 235.152344 110.316406 235.433594 110.195312 C 235.710938 110.070312 235.964844 109.820312 236.027344 109.523438 C 236.332031 109.804688 236.800781 109.898438 237.191406 109.753906 C 237.441406 109.664062 237.648438 109.488281 237.890625 109.382812 C 238.367188 109.179688 238.886719 109.265625 239.398438 109.351562 C 239.683594 108.875 240.070312 108.464844 240.519531 108.140625 C 240.640625 108.054688 240.773438 107.972656 240.925781 107.945312 C 241.101562 107.917969 241.285156 107.980469 241.445312 108.058594 C 242.019531 108.335938 242.460938 108.875 242.625 109.496094 L 242.625 109.402344 C 243.054688 109.210938 243.554688 109.179688 244.003906 109.320312 C 244.335938 109.421875 244.632812 109.609375 244.964844 109.714844 C 245.296875 109.816406 245.695312 109.8125 245.949219 109.578125 C 246.070312 109.921875 246.378906 110.21875 246.730469 110.328125 C 247.226562 110.484375 247.804688 110.308594 248.269531 110.546875 C 248.445312 110.136719 248.699219 109.730469 249.019531 109.414062 C 249.125 109.304688 249.25 109.203125 249.398438 109.164062 C 249.574219 109.121094 249.761719 109.183594 249.933594 109.25 C 250.355469 109.417969 250.527344 109.480469 250.890625 109.753906 C 251.183594 109.457031 251.492188 109.15625 251.890625 109.023438 C 252.238281 108.910156 252.621094 108.945312 252.96875 108.832031 C 253.214844 108.753906 253.4375 108.601562 253.691406 108.546875 C 253.859375 108.507812 254.035156 108.515625 254.207031 108.5 C 254.378906 108.484375 254.554688 108.445312 254.6875 108.332031 C 254.894531 108.679688 255.210938 109.039062 255.589844 109.183594 C 256.050781 109.359375 256.617188 109.15625 257.035156 109.421875 C 257.199219 109.523438 257.3125 109.6875 257.445312 109.824219 C 257.578125 109.960938 257.753906 110.089844 257.945312 110.078125 C 258.273438 109.851562 258.640625 109.628906 259.007812 109.484375 C 259.105469 109.445312 259.210938 109.410156 259.3125 109.421875 C 259.453125 109.441406 259.5625 109.546875 259.652344 109.65625 C 259.90625 109.957031 260.085938 110.316406 260.171875 110.699219 C 260.375 110.394531 260.777344 110.238281 261.140625 110.179688 C 261.503906 110.121094 261.878906 110.117188 262.21875 109.980469 C 262.511719 109.863281 262.765625 109.644531 262.929688 109.375 C 263.289062 109.648438 263.820312 109.664062 264.261719 109.566406 C 264.703125 109.472656 265.113281 109.269531 265.539062 109.125 C 266.46875 108.804688 267.664062 108.753906 268.621094 108.980469 C 268.722656 109.953125 268.644531 110.9375 268.394531 111.882812 C 268.1875 112.648438 267.863281 113.398438 267.839844 114.195312 C 267.914062 114.234375 267.992188 114.296875 268.035156 114.371094 C 268.082031 114.445312 268.097656 114.535156 268.0625 114.613281 C 268.007812 114.734375 267.867188 114.777344 267.757812 114.847656 C 267.589844 114.953125 267.484375 115.191406 267.492188 115.386719 C 267.410156 115.667969 267.390625 115.957031 267.347656 116.246094 C 267.300781 116.53125 267.230469 116.820312 267.0625 117.058594 C 266.925781 117.25 266.933594 117.242188 266.742188 117.382812 L 266.757812 117.382812 C 267.144531 117.472656 267.59375 117.648438 267.800781 117.988281 C 267.957031 118.253906 267.957031 118.59375 267.863281 118.890625 C 267.765625 119.1875 267.574219 119.503906 267.382812 119.75 C 267.773438 119.976562 268.066406 120.375 268.167969 120.816406 C 268.242188 121.136719 268.222656 121.472656 268.316406 121.792969 C 268.441406 122.222656 268.84375 122.496094 269.21875 122.777344 C 268.976562 123.179688 268.875 123.644531 268.804688 124.105469 C 268.734375 124.566406 268.6875 125.035156 268.546875 125.480469 C 268.40625 125.925781 268.128906 126.359375 267.734375 126.609375 C 268.1875 126.910156 268.433594 127.492188 268.335938 128.027344 C 268.242188 128.5625 267.808594 129.023438 267.28125 129.148438 C 267.25 129.113281 267.09375 129.152344 267.070312 129.195312 C 267.046875 129.234375 267.050781 129.285156 267.054688 129.332031 C 267.09375 129.808594 267.140625 130.289062 267.261719 130.753906 C 267.304688 130.921875 267.359375 131.085938 267.472656 131.214844 C 267.597656 131.359375 267.78125 131.4375 267.957031 131.511719 C 267.703125 131.800781 267.621094 132.230469 267.730469 132.597656 C 267.824219 132.917969 268.058594 133.183594 268.164062 133.5 C 268.257812 133.78125 268.265625 134.136719 268.234375 134.433594 C 268.171875 134.609375 268.238281 134.808594 268.355469 134.957031 C 268.472656 135.101562 268.628906 135.207031 268.777344 135.324219 C 268.992188 135.5 269.191406 135.699219 269.363281 135.921875 C 269.46875 136.054688 269.5625 136.203125 269.59375 136.371094 C 269.625 136.589844 269.542969 136.820312 269.425781 137.011719 Z M 269.425781 137.011719 " fill-opacity="1" fill-rule="nonzero"/></g><g clip-path="url(#034c20e2dc)"><path fill="#ffffff" d="M 211.84375 107.367188 L 270.132812 107.367188 L 270.132812 165.65625 L 211.84375 165.65625 Z M 211.84375 107.367188 " fill-opacity="1" fill-rule="nonzero"/></g><g clip-path="url(#9d0185cf10)"><path fill="#ffffff" d="M 259.96875 136.84375 C 259.761719 137.183594 259.410156 137.386719 259.058594 137.582031 C 259.207031 137.792969 259.203125 138.078125 259.136719 138.332031 C 259.070312 138.582031 258.953125 138.816406 258.886719 139.066406 C 258.820312 139.316406 258.835938 139.648438 258.980469 139.859375 C 258.78125 139.871094 258.613281 140.03125 258.53125 140.214844 C 258.449219 140.398438 258.4375 140.601562 258.421875 140.800781 C 258.402344 141 258.375 141.207031 258.273438 141.378906 L 258.277344 141.378906 C 258.5625 141.492188 258.863281 141.617188 259.066406 141.847656 C 259.125 141.917969 259.175781 141.996094 259.207031 142.078125 C 259.277344 142.273438 259.25 142.492188 259.167969 142.679688 C 259.089844 142.871094 258.964844 143.039062 258.839844 143.203125 C 259 143.363281 259.265625 143.542969 259.339844 143.757812 C 259.386719 143.898438 259.390625 144.046875 259.410156 144.1875 C 259.480469 144.699219 259.75 145.179688 259.734375 145.691406 L 259.734375 145.695312 C 259.734375 145.746094 259.695312 145.792969 259.648438 145.816406 C 259.605469 145.84375 259.554688 145.859375 259.507812 145.882812 C 259.347656 145.964844 259.261719 146.148438 259.230469 146.324219 C 259.195312 146.503906 259.203125 146.683594 259.164062 146.859375 C 259.085938 147.21875 258.8125 147.511719 258.574219 147.792969 C 258.703125 147.953125 258.835938 148.121094 258.910156 148.316406 C 258.984375 148.507812 258.992188 148.742188 258.882812 148.917969 C 258.746094 149.132812 258.421875 149.234375 258.175781 149.300781 C 258.355469 149.476562 258.546875 149.671875 258.585938 149.921875 C 258.609375 150.097656 258.554688 150.273438 258.578125 150.449219 C 258.597656 150.597656 258.675781 150.738281 258.773438 150.851562 C 258.871094 150.96875 258.988281 151.0625 259.105469 151.160156 C 258.894531 151.480469 258.914062 151.9375 259.015625 152.308594 C 259.113281 152.679688 259.292969 153.023438 259.390625 153.394531 C 259.515625 153.871094 259.507812 154.378906 259.367188 154.847656 C 258.730469 155 257.992188 155 257.371094 154.789062 C 257.085938 154.691406 256.8125 154.558594 256.519531 154.492188 C 256.222656 154.429688 255.867188 154.441406 255.628906 154.621094 C 255.519531 154.441406 255.351562 154.296875 255.15625 154.21875 C 254.929688 154.128906 254.675781 154.125 254.433594 154.085938 C 254.191406 154.046875 253.925781 153.941406 253.789062 153.738281 C 253.730469 153.992188 253.609375 154.234375 253.441406 154.433594 C 253.382812 154.503906 253.308594 154.574219 253.214844 154.589844 C 253.144531 154.597656 253.078125 154.574219 253.011719 154.550781 C 252.765625 154.453125 252.519531 154.304688 252.304688 154.152344 C 252.175781 154.144531 252.058594 154.230469 251.96875 154.320312 C 251.878906 154.414062 251.800781 154.523438 251.695312 154.589844 C 251.414062 154.765625 251.035156 154.628906 250.730469 154.75 C 250.476562 154.847656 250.265625 155.085938 250.128906 155.316406 C 250.039062 155.242188 249.921875 155.214844 249.808594 155.207031 C 249.691406 155.195312 249.574219 155.203125 249.460938 155.175781 C 249.292969 155.136719 249.144531 155.039062 248.980469 154.984375 C 248.746094 154.910156 248.492188 154.933594 248.261719 154.855469 C 247.996094 154.769531 247.789062 154.566406 247.59375 154.371094 C 247.351562 154.550781 247.238281 154.59375 246.953125 154.707031 C 246.839844 154.75 246.714844 154.789062 246.597656 154.761719 C 246.496094 154.738281 246.414062 154.667969 246.34375 154.597656 C 246.132812 154.386719 245.960938 154.113281 245.84375 153.839844 C 245.53125 154 245.148438 153.878906 244.816406 153.984375 C 244.582031 154.058594 244.375 154.257812 244.296875 154.488281 C 244.128906 154.328125 243.859375 154.328125 243.636719 154.394531 C 243.417969 154.464844 243.21875 154.589844 242.996094 154.660156 C 242.695312 154.75 242.363281 154.730469 242.074219 154.605469 L 242.078125 154.542969 C 241.96875 154.953125 241.671875 155.316406 241.289062 155.5 C 241.179688 155.554688 241.058594 155.59375 240.941406 155.574219 C 240.839844 155.558594 240.75 155.503906 240.671875 155.445312 C 240.371094 155.230469 240.113281 154.953125 239.921875 154.636719 C 239.582031 154.695312 239.234375 154.753906 238.917969 154.617188 C 238.753906 154.546875 238.613281 154.429688 238.449219 154.367188 C 238.1875 154.273438 237.875 154.335938 237.671875 154.523438 C 237.632812 154.324219 237.460938 154.15625 237.277344 154.074219 C 237.089844 153.992188 236.882812 153.96875 236.683594 153.949219 C 236.480469 153.925781 236.273438 153.902344 236.089844 153.816406 C 236.058594 154.113281 235.9375 154.339844 235.738281 154.5625 C 235.660156 154.648438 235.5625 154.730469 235.441406 154.75 C 235.367188 154.761719 235.289062 154.746094 235.214844 154.726562 C 234.941406 154.652344 234.6875 154.53125 234.457031 154.367188 C 234.089844 154.492188 233.871094 154.878906 233.488281 154.964844 C 233.308594 155.003906 233.117188 154.96875 232.9375 155.007812 C 232.796875 155.039062 232.671875 155.113281 232.53125 155.15625 C 232.289062 155.226562 232.011719 155.195312 231.792969 155.324219 C 231.675781 155.0625 231.398438 154.847656 231.121094 154.769531 C 230.960938 154.726562 230.789062 154.722656 230.625 154.6875 C 230.3125 154.621094 229.96875 154.378906 229.777344 154.121094 C 229.636719 154.25 229.613281 154.273438 229.445312 154.371094 C 229.277344 154.46875 229.082031 154.523438 228.894531 154.496094 C 228.722656 154.472656 228.5625 154.371094 228.453125 154.238281 C 228.339844 154.105469 228.25 153.878906 228.226562 153.707031 C 228.082031 153.9375 227.816406 154.082031 227.542969 154.109375 C 227.359375 154.128906 227.167969 154.097656 226.984375 154.132812 C 226.726562 154.183594 226.457031 154.402344 226.347656 154.636719 C 226.121094 154.472656 225.816406 154.449219 225.535156 154.488281 C 225.085938 154.550781 224.664062 154.746094 224.226562 154.863281 C 223.71875 155 223.011719 155.003906 222.613281 154.847656 C 222.472656 154.378906 222.464844 153.871094 222.589844 153.398438 C 222.6875 153.027344 222.867188 152.679688 222.964844 152.308594 C 223.066406 151.9375 223.089844 151.480469 222.875 151.160156 C 222.992188 151.066406 223.109375 150.96875 223.207031 150.851562 C 223.304688 150.738281 223.382812 150.597656 223.402344 150.449219 C 223.425781 150.273438 223.371094 150.097656 223.394531 149.921875 C 223.433594 149.671875 223.625 149.476562 223.804688 149.300781 C 223.558594 149.238281 223.234375 149.132812 223.097656 148.917969 C 222.988281 148.742188 222.996094 148.511719 223.070312 148.316406 C 223.144531 148.121094 223.277344 147.953125 223.40625 147.792969 C 223.167969 147.511719 222.894531 147.222656 222.816406 146.863281 C 222.78125 146.683594 222.785156 146.503906 222.75 146.324219 C 222.71875 146.148438 222.632812 145.964844 222.472656 145.882812 C 222.425781 145.859375 222.375 145.847656 222.332031 145.820312 C 222.285156 145.792969 222.246094 145.746094 222.246094 145.695312 C 222.226562 145.179688 222.5 144.699219 222.570312 144.191406 C 222.589844 144.046875 222.59375 143.898438 222.640625 143.761719 C 222.714844 143.542969 222.976562 143.363281 223.140625 143.203125 C 223.015625 143.039062 222.890625 142.871094 222.8125 142.683594 C 222.730469 142.492188 222.703125 142.273438 222.773438 142.078125 C 222.804688 141.996094 222.855469 141.917969 222.914062 141.851562 C 223.117188 141.617188 223.417969 141.492188 223.703125 141.382812 L 223.707031 141.378906 C 223.605469 141.207031 223.578125 141.003906 223.558594 140.800781 C 223.542969 140.601562 223.53125 140.398438 223.449219 140.214844 C 223.367188 140.03125 223.199219 139.871094 223 139.863281 C 223.144531 139.648438 223.164062 139.316406 223.097656 139.066406 C 223.027344 138.816406 222.910156 138.582031 222.84375 138.332031 C 222.777344 138.082031 222.773438 137.792969 222.921875 137.582031 C 222.570312 137.386719 222.21875 137.1875 222.011719 136.84375 C 221.933594 136.71875 221.878906 136.566406 221.90625 136.417969 C 221.925781 136.304688 221.992188 136.207031 222.0625 136.117188 C 222.175781 135.96875 222.304688 135.835938 222.453125 135.71875 C 222.550781 135.640625 222.65625 135.570312 222.734375 135.472656 C 222.8125 135.375 222.855469 135.242188 222.816406 135.121094 C 222.792969 134.925781 222.800781 134.6875 222.859375 134.5 C 222.929688 134.289062 223.085938 134.113281 223.152344 133.898438 C 223.222656 133.652344 223.167969 133.367188 223 133.175781 C 223.117188 133.125 223.238281 133.074219 223.324219 132.976562 C 223.398438 132.890625 223.433594 132.777344 223.464844 132.667969 C 223.546875 132.359375 223.574219 132.035156 223.601562 131.71875 C 223.605469 131.6875 223.609375 131.652344 223.589844 131.625 C 223.574219 131.597656 223.472656 131.574219 223.453125 131.597656 C 223.097656 131.511719 222.808594 131.207031 222.746094 130.847656 C 222.679688 130.488281 222.847656 130.101562 223.148438 129.902344 C 222.886719 129.734375 222.699219 129.445312 222.605469 129.148438 C 222.511719 128.851562 222.480469 128.539062 222.433594 128.230469 C 222.386719 127.921875 222.316406 127.613281 222.15625 127.34375 C 222.40625 127.15625 222.675781 126.976562 222.761719 126.6875 C 222.820312 126.476562 222.808594 126.25 222.859375 126.035156 C 222.925781 125.738281 223.121094 125.476562 223.382812 125.324219 C 223.253906 125.160156 223.125 124.945312 223.0625 124.75 C 222.996094 124.550781 222.996094 124.324219 223.105469 124.148438 C 223.238281 123.917969 223.542969 123.804688 223.800781 123.742188 L 223.8125 123.742188 C 223.683594 123.648438 223.6875 123.65625 223.597656 123.527344 C 223.484375 123.371094 223.433594 123.175781 223.40625 122.984375 C 223.378906 122.792969 223.363281 122.597656 223.3125 122.410156 C 223.316406 122.28125 223.242188 122.121094 223.132812 122.050781 C 223.058594 122.003906 222.964844 121.972656 222.929688 121.894531 C 222.90625 121.839844 222.917969 121.78125 222.945312 121.734375 C 222.976562 121.6875 223.027344 121.640625 223.078125 121.613281 C 223.0625 121.085938 222.84375 120.582031 222.707031 120.070312 C 222.539062 119.441406 222.488281 118.78125 222.558594 118.136719 C 222.957031 117.980469 223.722656 118.019531 224.230469 118.15625 C 224.667969 118.273438 225.089844 118.46875 225.539062 118.53125 C 225.816406 118.570312 226.125 118.546875 226.351562 118.382812 C 226.460938 118.621094 226.730469 118.839844 226.988281 118.886719 C 227.171875 118.921875 227.359375 118.890625 227.546875 118.910156 C 227.820312 118.9375 228.085938 119.082031 228.230469 119.3125 C 228.253906 119.140625 228.34375 118.917969 228.457031 118.78125 C 228.566406 118.648438 228.726562 118.550781 228.898438 118.523438 C 229.085938 118.492188 229.28125 118.550781 229.449219 118.648438 C 229.617188 118.746094 229.640625 118.769531 229.78125 118.898438 C 229.972656 118.640625 230.316406 118.398438 230.628906 118.332031 C 230.792969 118.300781 230.964844 118.292969 231.125 118.25 C 231.402344 118.171875 231.679688 117.957031 231.796875 117.695312 C 232.015625 117.824219 232.292969 117.792969 232.535156 117.863281 C 232.671875 117.90625 232.800781 117.980469 232.941406 118.011719 C 233.121094 118.050781 233.3125 118.015625 233.492188 118.054688 C 233.871094 118.140625 234.09375 118.527344 234.460938 118.652344 C 234.6875 118.488281 234.945312 118.367188 235.214844 118.292969 C 235.292969 118.273438 235.371094 118.257812 235.445312 118.269531 C 235.5625 118.289062 235.664062 118.371094 235.742188 118.457031 C 235.941406 118.679688 236.0625 118.90625 236.09375 119.203125 C 236.277344 119.117188 236.484375 119.09375 236.683594 119.070312 C 236.886719 119.050781 237.09375 119.027344 237.277344 118.945312 C 237.464844 118.863281 237.632812 118.695312 237.675781 118.496094 C 237.878906 118.683594 238.191406 118.746094 238.453125 118.652344 C 238.617188 118.589844 238.757812 118.472656 238.921875 118.402344 C 239.238281 118.265625 239.585938 118.324219 239.925781 118.382812 C 240.117188 118.066406 240.371094 117.789062 240.671875 117.574219 C 240.753906 117.515625 240.84375 117.460938 240.945312 117.445312 C 241.0625 117.425781 241.183594 117.464844 241.292969 117.519531 C 241.675781 117.703125 241.972656 118.066406 242.078125 118.476562 L 242.078125 118.414062 C 242.367188 118.289062 242.699219 118.269531 243 118.359375 C 243.21875 118.429688 243.421875 118.554688 243.640625 118.625 C 243.863281 118.691406 244.128906 118.691406 244.296875 118.53125 C 244.378906 118.761719 244.585938 118.960938 244.820312 119.035156 C 245.152344 119.140625 245.535156 119.019531 245.847656 119.179688 C 245.964844 118.90625 246.136719 118.636719 246.347656 118.421875 C 246.417969 118.351562 246.5 118.28125 246.597656 118.257812 C 246.71875 118.230469 246.84375 118.269531 246.957031 118.3125 C 247.238281 118.425781 247.351562 118.46875 247.597656 118.648438 C 247.792969 118.453125 248 118.25 248.261719 118.164062 C 248.496094 118.085938 248.753906 118.109375 248.984375 118.035156 C 249.148438 117.980469 249.296875 117.882812 249.464844 117.84375 C 249.578125 117.820312 249.695312 117.824219 249.808594 117.8125 C 249.925781 117.804688 250.042969 117.777344 250.132812 117.703125 C 250.269531 117.933594 250.480469 118.171875 250.734375 118.269531 C 251.039062 118.386719 251.417969 118.25 251.695312 118.429688 C 251.804688 118.496094 251.882812 118.605469 251.972656 118.699219 C 252.0625 118.789062 252.175781 118.875 252.304688 118.867188 C 252.523438 118.714844 252.769531 118.566406 253.015625 118.46875 C 253.082031 118.445312 253.148438 118.421875 253.21875 118.429688 C 253.3125 118.441406 253.382812 118.511719 253.445312 118.585938 C 253.613281 118.785156 253.734375 119.027344 253.789062 119.28125 C 253.925781 119.078125 254.195312 118.972656 254.4375 118.933594 C 254.679688 118.894531 254.929688 118.890625 255.160156 118.800781 C 255.355469 118.722656 255.523438 118.578125 255.632812 118.398438 C 255.871094 118.582031 256.226562 118.589844 256.523438 118.527344 C 256.816406 118.460938 257.089844 118.328125 257.375 118.230469 C 257.996094 118.019531 258.792969 117.984375 259.429688 118.136719 C 259.5 118.78125 259.445312 119.441406 259.277344 120.070312 C 259.140625 120.582031 258.925781 121.082031 258.910156 121.613281 C 258.960938 121.640625 259.011719 121.683594 259.039062 121.734375 C 259.070312 121.78125 259.082031 121.84375 259.058594 121.894531 C 259.023438 121.972656 258.925781 122.003906 258.855469 122.050781 C 258.742188 122.121094 258.671875 122.277344 258.675781 122.410156 C 258.625 122.597656 258.609375 122.792969 258.582031 122.984375 C 258.550781 123.175781 258.503906 123.367188 258.390625 123.527344 C 258.300781 123.65625 258.304688 123.648438 258.175781 123.742188 L 258.1875 123.742188 C 258.445312 123.804688 258.746094 123.917969 258.882812 124.144531 C 258.988281 124.324219 258.988281 124.550781 258.925781 124.75 C 258.859375 124.945312 258.734375 125.160156 258.605469 125.320312 C 258.867188 125.476562 259.058594 125.738281 259.128906 126.035156 C 259.179688 126.246094 259.164062 126.472656 259.226562 126.683594 C 259.308594 126.972656 259.578125 127.15625 259.828125 127.34375 C 259.667969 127.609375 259.601562 127.921875 259.554688 128.230469 C 259.507812 128.539062 259.476562 128.851562 259.382812 129.148438 C 259.285156 129.445312 259.101562 129.734375 258.839844 129.898438 C 259.140625 130.101562 259.304688 130.492188 259.242188 130.847656 C 259.179688 131.203125 258.890625 131.511719 258.535156 131.597656 C 258.515625 131.570312 258.414062 131.597656 258.398438 131.625 C 258.378906 131.652344 258.382812 131.6875 258.386719 131.71875 C 258.414062 132.039062 258.441406 132.359375 258.523438 132.667969 C 258.550781 132.777344 258.589844 132.890625 258.664062 132.976562 C 258.75 133.070312 258.871094 133.125 258.988281 133.175781 C 258.820312 133.367188 258.761719 133.652344 258.835938 133.898438 C 258.898438 134.113281 259.054688 134.289062 259.125 134.5 C 259.1875 134.6875 259.195312 134.925781 259.171875 135.121094 C 259.128906 135.238281 259.175781 135.375 259.253906 135.472656 C 259.332031 135.570312 259.4375 135.640625 259.535156 135.71875 C 259.679688 135.835938 259.8125 135.96875 259.925781 136.117188 C 259.996094 136.207031 260.058594 136.304688 260.082031 136.417969 C 260.101562 136.5625 260.046875 136.714844 259.96875 136.84375 Z M 259.96875 136.84375 " fill-opacity="1" fill-rule="nonzero"/><path fill="#01cc65" d="M 221.535156 117.058594 L 260.441406 117.058594 L 260.441406 155.964844 L 221.535156 155.964844 Z M 221.535156 117.058594 " fill-opacity="1" fill-rule="nonzero"/></g><g clip-path="url(#6a2069fe95)"><path fill="#ffffff" d="M 251.421875 136.695312 C 251.308594 136.882812 251.113281 136.992188 250.921875 137.101562 C 251.003906 137.21875 251 137.375 250.964844 137.511719 C 250.929688 137.648438 250.863281 137.777344 250.828125 137.917969 C 250.789062 138.054688 250.800781 138.234375 250.878906 138.355469 C 250.769531 138.359375 250.675781 138.445312 250.632812 138.546875 C 250.585938 138.648438 250.582031 138.761719 250.570312 138.871094 C 250.5625 138.980469 250.546875 139.09375 250.488281 139.1875 L 250.492188 139.1875 C 250.648438 139.25 250.8125 139.316406 250.925781 139.445312 C 250.957031 139.484375 250.984375 139.527344 251.003906 139.574219 C 251.042969 139.679688 251.027344 139.800781 250.984375 139.902344 C 250.9375 140.007812 250.871094 140.101562 250.800781 140.191406 C 250.890625 140.277344 251.035156 140.378906 251.074219 140.496094 C 251.101562 140.570312 251.105469 140.652344 251.113281 140.734375 C 251.152344 141.011719 251.304688 141.277344 251.292969 141.558594 C 251.292969 141.589844 251.273438 141.613281 251.246094 141.628906 C 251.222656 141.644531 251.195312 141.652344 251.167969 141.664062 C 251.082031 141.710938 251.035156 141.808594 251.015625 141.90625 C 250.996094 142.003906 251 142.105469 250.980469 142.203125 C 250.9375 142.398438 250.785156 142.558594 250.65625 142.710938 C 250.726562 142.800781 250.800781 142.894531 250.839844 143 C 250.882812 143.109375 250.886719 143.234375 250.824219 143.332031 C 250.75 143.449219 250.570312 143.507812 250.4375 143.542969 C 250.535156 143.640625 250.640625 143.746094 250.660156 143.882812 C 250.675781 143.980469 250.644531 144.078125 250.65625 144.171875 C 250.667969 144.253906 250.710938 144.332031 250.765625 144.394531 C 250.816406 144.457031 250.882812 144.511719 250.949219 144.566406 C 250.832031 144.738281 250.84375 144.992188 250.898438 145.195312 C 250.953125 145.398438 251.050781 145.589844 251.105469 145.792969 C 251.171875 146.054688 251.167969 146.335938 251.09375 146.59375 C 250.742188 146.675781 250.335938 146.675781 249.996094 146.558594 C 249.835938 146.507812 249.6875 146.433594 249.527344 146.398438 C 249.363281 146.363281 249.167969 146.367188 249.035156 146.46875 C 248.976562 146.367188 248.882812 146.289062 248.777344 146.246094 C 248.652344 146.195312 248.511719 146.195312 248.378906 146.171875 C 248.246094 146.152344 248.101562 146.09375 248.023438 145.980469 C 247.992188 146.121094 247.925781 146.253906 247.835938 146.363281 C 247.800781 146.402344 247.761719 146.441406 247.710938 146.449219 C 247.671875 146.457031 247.632812 146.441406 247.597656 146.429688 C 247.460938 146.375 247.328125 146.292969 247.207031 146.210938 C 247.136719 146.207031 247.074219 146.25 247.023438 146.300781 C 246.976562 146.351562 246.933594 146.414062 246.875 146.449219 C 246.71875 146.546875 246.511719 146.472656 246.34375 146.539062 C 246.207031 146.589844 246.089844 146.722656 246.011719 146.851562 C 245.964844 146.808594 245.898438 146.792969 245.835938 146.789062 C 245.773438 146.785156 245.710938 146.785156 245.648438 146.773438 C 245.554688 146.75 245.472656 146.695312 245.382812 146.667969 C 245.253906 146.625 245.113281 146.636719 244.984375 146.597656 C 244.839844 146.550781 244.726562 146.4375 244.621094 146.328125 C 244.484375 146.429688 244.421875 146.453125 244.269531 146.511719 C 244.207031 146.539062 244.136719 146.558594 244.070312 146.542969 C 244.015625 146.53125 243.972656 146.492188 243.933594 146.453125 C 243.816406 146.335938 243.722656 146.1875 243.65625 146.039062 C 243.488281 146.125 243.273438 146.058594 243.09375 146.117188 C 242.964844 146.160156 242.851562 146.265625 242.808594 146.394531 C 242.714844 146.304688 242.566406 146.304688 242.445312 146.34375 C 242.324219 146.378906 242.214844 146.449219 242.09375 146.488281 C 241.925781 146.539062 241.742188 146.527344 241.585938 146.457031 L 241.585938 146.421875 C 241.527344 146.652344 241.363281 146.847656 241.152344 146.949219 C 241.09375 146.980469 241.027344 147 240.960938 146.992188 C 240.90625 146.984375 240.859375 146.953125 240.8125 146.921875 C 240.648438 146.800781 240.507812 146.652344 240.402344 146.476562 C 240.214844 146.507812 240.023438 146.539062 239.851562 146.464844 C 239.761719 146.425781 239.683594 146.363281 239.59375 146.328125 C 239.449219 146.277344 239.277344 146.308594 239.164062 146.414062 C 239.144531 146.304688 239.050781 146.210938 238.949219 146.167969 C 238.84375 146.121094 238.734375 146.109375 238.621094 146.097656 C 238.511719 146.085938 238.398438 146.074219 238.296875 146.027344 C 238.277344 146.1875 238.214844 146.3125 238.101562 146.433594 C 238.058594 146.484375 238.003906 146.527344 237.941406 146.539062 C 237.898438 146.542969 237.855469 146.535156 237.8125 146.523438 C 237.664062 146.484375 237.523438 146.417969 237.398438 146.328125 C 237.195312 146.394531 237.074219 146.609375 236.867188 146.65625 C 236.765625 146.675781 236.660156 146.660156 236.5625 146.679688 C 236.484375 146.695312 236.417969 146.738281 236.339844 146.761719 C 236.207031 146.800781 236.054688 146.78125 235.933594 146.851562 C 235.871094 146.710938 235.714844 146.59375 235.566406 146.550781 C 235.476562 146.523438 235.382812 146.523438 235.292969 146.503906 C 235.121094 146.464844 234.929688 146.332031 234.828125 146.191406 C 234.75 146.261719 234.734375 146.277344 234.644531 146.328125 C 234.550781 146.382812 234.445312 146.414062 234.339844 146.398438 C 234.246094 146.386719 234.160156 146.332031 234.097656 146.257812 C 234.035156 146.183594 233.988281 146.058594 233.972656 145.964844 C 233.894531 146.09375 233.746094 146.171875 233.597656 146.1875 C 233.496094 146.195312 233.390625 146.179688 233.292969 146.199219 C 233.148438 146.226562 233 146.347656 232.941406 146.476562 C 232.816406 146.382812 232.648438 146.371094 232.496094 146.394531 C 232.246094 146.429688 232.015625 146.535156 231.773438 146.601562 C 231.496094 146.675781 231.109375 146.675781 230.886719 146.59375 C 230.808594 146.335938 230.804688 146.054688 230.875 145.792969 C 230.929688 145.589844 231.027344 145.398438 231.082031 145.195312 C 231.136719 144.992188 231.148438 144.742188 231.03125 144.566406 C 231.097656 144.511719 231.160156 144.460938 231.214844 144.394531 C 231.269531 144.332031 231.3125 144.257812 231.320312 144.171875 C 231.335938 144.078125 231.304688 143.980469 231.316406 143.882812 C 231.339844 143.746094 231.445312 143.640625 231.542969 143.542969 C 231.40625 143.507812 231.230469 143.449219 231.15625 143.332031 C 231.09375 143.234375 231.097656 143.109375 231.140625 143 C 231.179688 142.894531 231.253906 142.800781 231.324219 142.714844 C 231.191406 142.558594 231.042969 142.398438 231 142.203125 C 230.980469 142.105469 230.984375 142.003906 230.964844 141.90625 C 230.945312 141.808594 230.898438 141.710938 230.8125 141.664062 C 230.785156 141.652344 230.757812 141.644531 230.734375 141.628906 C 230.707031 141.613281 230.6875 141.589844 230.6875 141.5625 L 230.6875 141.558594 C 230.675781 141.277344 230.824219 141.011719 230.863281 140.734375 C 230.875 140.652344 230.878906 140.574219 230.902344 140.496094 C 230.945312 140.378906 231.089844 140.28125 231.179688 140.191406 C 231.109375 140.101562 231.039062 140.007812 230.996094 139.902344 C 230.953125 139.800781 230.9375 139.679688 230.976562 139.574219 C 230.992188 139.527344 231.019531 139.484375 231.054688 139.445312 C 231.164062 139.320312 231.328125 139.25 231.488281 139.1875 C 231.433594 139.09375 231.417969 138.980469 231.410156 138.871094 C 231.398438 138.761719 231.390625 138.648438 231.347656 138.546875 C 231.304688 138.449219 231.210938 138.359375 231.101562 138.355469 C 231.179688 138.234375 231.191406 138.054688 231.152344 137.917969 C 231.117188 137.777344 231.050781 137.648438 231.015625 137.511719 C 230.980469 137.375 230.976562 137.21875 231.058594 137.101562 C 230.867188 136.992188 230.671875 136.882812 230.558594 136.695312 C 230.515625 136.625 230.484375 136.542969 230.5 136.460938 C 230.511719 136.398438 230.546875 136.34375 230.585938 136.296875 C 230.648438 136.214844 230.71875 136.140625 230.800781 136.078125 C 230.851562 136.035156 230.910156 135.996094 230.953125 135.941406 C 230.996094 135.886719 231.023438 135.8125 231 135.75 C 230.988281 135.640625 230.988281 135.511719 231.023438 135.40625 C 231.0625 135.289062 231.148438 135.195312 231.183594 135.074219 C 231.222656 134.941406 231.191406 134.785156 231.101562 134.679688 C 231.164062 134.652344 231.230469 134.621094 231.277344 134.570312 C 231.320312 134.523438 231.339844 134.460938 231.355469 134.398438 C 231.402344 134.230469 231.417969 134.050781 231.433594 133.878906 C 231.433594 133.859375 231.433594 133.839844 231.425781 133.828125 C 231.417969 133.8125 231.359375 133.796875 231.347656 133.8125 C 231.15625 133.765625 230.996094 133.597656 230.960938 133.398438 C 230.925781 133.203125 231.015625 132.988281 231.183594 132.878906 C 231.039062 132.789062 230.9375 132.628906 230.882812 132.464844 C 230.832031 132.300781 230.816406 132.128906 230.789062 131.960938 C 230.761719 131.792969 230.726562 131.621094 230.636719 131.472656 C 230.773438 131.371094 230.921875 131.269531 230.96875 131.109375 C 231.003906 130.996094 230.996094 130.871094 231.023438 130.753906 C 231.058594 130.589844 231.167969 130.445312 231.3125 130.363281 C 231.238281 130.273438 231.171875 130.15625 231.136719 130.046875 C 231.097656 129.9375 231.097656 129.8125 231.15625 129.714844 C 231.234375 129.589844 231.398438 129.527344 231.539062 129.492188 L 231.546875 129.492188 C 231.476562 129.441406 231.480469 129.445312 231.429688 129.375 C 231.367188 129.289062 231.339844 129.179688 231.324219 129.074219 C 231.308594 128.972656 231.300781 128.863281 231.269531 128.761719 C 231.273438 128.6875 231.234375 128.601562 231.175781 128.5625 C 231.132812 128.535156 231.082031 128.519531 231.0625 128.476562 C 231.050781 128.449219 231.054688 128.414062 231.070312 128.386719 C 231.085938 128.363281 231.117188 128.339844 231.144531 128.324219 C 231.132812 128.03125 231.015625 127.757812 230.941406 127.476562 C 230.847656 127.128906 230.820312 126.765625 230.855469 126.410156 C 231.078125 126.328125 231.5 126.347656 231.777344 126.421875 C 232.019531 126.488281 232.25 126.59375 232.496094 126.628906 C 232.648438 126.648438 232.816406 126.636719 232.941406 126.546875 C 233.003906 126.675781 233.152344 126.796875 233.292969 126.824219 C 233.394531 126.84375 233.496094 126.828125 233.601562 126.835938 C 233.75 126.851562 233.894531 126.929688 233.976562 127.058594 C 233.988281 126.964844 234.039062 126.839844 234.097656 126.765625 C 234.160156 126.691406 234.246094 126.640625 234.34375 126.625 C 234.445312 126.609375 234.554688 126.640625 234.644531 126.691406 C 234.738281 126.746094 234.75 126.757812 234.828125 126.832031 C 234.933594 126.691406 235.121094 126.554688 235.292969 126.519531 C 235.382812 126.5 235.480469 126.5 235.566406 126.472656 C 235.71875 126.429688 235.871094 126.3125 235.933594 126.167969 C 236.054688 126.242188 236.207031 126.222656 236.34375 126.261719 C 236.417969 126.285156 236.488281 126.324219 236.566406 126.34375 C 236.664062 126.363281 236.769531 126.34375 236.867188 126.367188 C 237.078125 126.414062 237.199219 126.625 237.402344 126.695312 C 237.527344 126.605469 237.667969 126.539062 237.816406 126.496094 C 237.855469 126.488281 237.898438 126.476562 237.941406 126.484375 C 238.007812 126.496094 238.0625 126.539062 238.105469 126.589844 C 238.214844 126.710938 238.28125 126.835938 238.296875 126.996094 C 238.398438 126.949219 238.511719 126.9375 238.625 126.925781 C 238.734375 126.914062 238.847656 126.902344 238.949219 126.855469 C 239.050781 126.808594 239.144531 126.71875 239.167969 126.609375 C 239.28125 126.714844 239.453125 126.746094 239.59375 126.695312 C 239.6875 126.660156 239.761719 126.597656 239.851562 126.558594 C 240.027344 126.484375 240.21875 126.515625 240.40625 126.546875 C 240.511719 126.371094 240.652344 126.222656 240.816406 126.101562 C 240.859375 126.070312 240.910156 126.039062 240.964844 126.03125 C 241.03125 126.019531 241.097656 126.042969 241.15625 126.070312 C 241.367188 126.175781 241.527344 126.371094 241.589844 126.597656 L 241.589844 126.566406 C 241.746094 126.496094 241.929688 126.484375 242.09375 126.535156 C 242.214844 126.574219 242.324219 126.640625 242.445312 126.679688 C 242.570312 126.71875 242.714844 126.714844 242.808594 126.628906 C 242.851562 126.753906 242.964844 126.863281 243.09375 126.90625 C 243.277344 126.960938 243.488281 126.898438 243.660156 126.984375 C 243.722656 126.835938 243.816406 126.6875 243.933594 126.570312 C 243.972656 126.53125 244.019531 126.492188 244.074219 126.476562 C 244.140625 126.460938 244.207031 126.484375 244.269531 126.507812 C 244.425781 126.570312 244.488281 126.59375 244.621094 126.695312 C 244.730469 126.585938 244.84375 126.472656 244.988281 126.425781 C 245.113281 126.382812 245.257812 126.398438 245.382812 126.355469 C 245.472656 126.328125 245.554688 126.269531 245.648438 126.25 C 245.710938 126.238281 245.773438 126.238281 245.839844 126.234375 C 245.902344 126.226562 245.964844 126.214844 246.015625 126.171875 C 246.089844 126.300781 246.207031 126.433594 246.34375 126.484375 C 246.515625 126.550781 246.722656 126.476562 246.875 126.570312 C 246.933594 126.609375 246.976562 126.667969 247.027344 126.71875 C 247.074219 126.769531 247.140625 126.816406 247.210938 126.8125 C 247.328125 126.730469 247.464844 126.648438 247.597656 126.59375 C 247.636719 126.582031 247.671875 126.566406 247.710938 126.574219 C 247.761719 126.578125 247.804688 126.617188 247.835938 126.65625 C 247.929688 126.769531 247.996094 126.898438 248.027344 127.039062 C 248.101562 126.929688 248.25 126.871094 248.382812 126.851562 C 248.515625 126.828125 248.652344 126.828125 248.777344 126.777344 C 248.886719 126.734375 248.976562 126.65625 249.039062 126.554688 C 249.171875 126.65625 249.367188 126.660156 249.527344 126.625 C 249.6875 126.589844 249.839844 126.515625 249.996094 126.464844 C 250.335938 126.347656 250.773438 126.328125 251.125 126.410156 C 251.164062 126.765625 251.136719 127.128906 251.042969 127.476562 C 250.96875 127.757812 250.847656 128.03125 250.839844 128.324219 C 250.867188 128.335938 250.894531 128.363281 250.914062 128.386719 C 250.929688 128.414062 250.933594 128.449219 250.921875 128.476562 C 250.902344 128.519531 250.847656 128.535156 250.808594 128.5625 C 250.75 128.601562 250.710938 128.6875 250.710938 128.761719 C 250.683594 128.863281 250.675781 128.96875 250.660156 129.074219 C 250.644531 129.179688 250.617188 129.289062 250.554688 129.375 C 250.503906 129.445312 250.507812 129.441406 250.4375 129.492188 L 250.441406 129.492188 C 250.585938 129.527344 250.75 129.589844 250.824219 129.714844 C 250.882812 129.8125 250.882812 129.9375 250.847656 130.046875 C 250.8125 130.15625 250.742188 130.273438 250.671875 130.363281 C 250.816406 130.445312 250.921875 130.589844 250.960938 130.753906 C 250.988281 130.871094 250.980469 130.996094 251.015625 131.109375 C 251.058594 131.269531 251.207031 131.371094 251.347656 131.472656 C 251.257812 131.621094 251.21875 131.792969 251.195312 131.960938 C 251.167969 132.128906 251.152344 132.300781 251.097656 132.464844 C 251.046875 132.628906 250.945312 132.785156 250.800781 132.878906 C 250.96875 132.988281 251.058594 133.203125 251.023438 133.398438 C 250.988281 133.59375 250.828125 133.765625 250.632812 133.8125 C 250.625 133.796875 250.566406 133.8125 250.558594 133.828125 C 250.550781 133.839844 250.550781 133.859375 250.550781 133.878906 C 250.566406 134.054688 250.582031 134.230469 250.628906 134.398438 C 250.644531 134.460938 250.664062 134.523438 250.707031 134.570312 C 250.75 134.621094 250.816406 134.652344 250.882812 134.675781 C 250.789062 134.78125 250.757812 134.941406 250.800781 135.074219 C 250.835938 135.191406 250.921875 135.289062 250.957031 135.40625 C 250.992188 135.511719 250.996094 135.640625 250.984375 135.75 C 250.960938 135.8125 250.988281 135.886719 251.027344 135.941406 C 251.070312 135.996094 251.128906 136.035156 251.183594 136.078125 C 251.261719 136.140625 251.335938 136.214844 251.398438 136.292969 C 251.4375 136.34375 251.472656 136.398438 251.484375 136.460938 C 251.496094 136.542969 251.464844 136.625 251.421875 136.695312 Z M 251.421875 136.695312 " fill-opacity="1" fill-rule="nonzero"/></g><g clip-path="url(#85f8420e56)"><path fill="#ffffff" d="M 230.296875 125.820312 L 251.683594 125.820312 L 251.683594 147.207031 L 230.296875 147.207031 Z M 230.296875 125.820312 " fill-opacity="1" fill-rule="nonzero"/></g></svg>